<mxfile host="app.diagrams.net" modified="2020-11-24T01:37:05.815Z" agent="5.0 (Macintosh; Intel Mac OS X 10_15_6) AppleWebKit/537.36 (KHTML, like Gecko) Chrome/86.0.4240.198 Safari/537.36" etag="copxgCATbFY6YZMTRkCA" version="13.10.0" type="github">
  <diagram id="C5RBs43oDa-KdzZeNtuy" name="Page-1">
    <mxGraphModel dx="1892" dy="1108" grid="1" gridSize="10" guides="1" tooltips="1" connect="1" arrows="1" fold="1" page="1" pageScale="1" pageWidth="3300" pageHeight="4681" math="0" shadow="0">
      <root>
        <mxCell id="WIyWlLk6GJQsqaUBKTNV-0" />
        <mxCell id="WIyWlLk6GJQsqaUBKTNV-1" parent="WIyWlLk6GJQsqaUBKTNV-0" />
        <mxCell id="2uKyOJZ1EWHe63vv_vlm-28" value="" style="rounded=0;whiteSpace=wrap;html=1;" parent="WIyWlLk6GJQsqaUBKTNV-1" vertex="1">
          <mxGeometry x="120" y="30" width="930" height="530" as="geometry" />
        </mxCell>
        <mxCell id="2uKyOJZ1EWHe63vv_vlm-29" value="&lt;font style=&quot;font-size: 14px&quot;&gt;compiler-core&lt;/font&gt;" style="rounded=1;whiteSpace=wrap;html=1;fillColor=#51D6D5;" parent="WIyWlLk6GJQsqaUBKTNV-1" vertex="1">
          <mxGeometry x="230" y="172" width="170" height="50" as="geometry" />
        </mxCell>
        <mxCell id="2uKyOJZ1EWHe63vv_vlm-30" value="&lt;font style=&quot;font-size: 14px&quot;&gt;compiler-dom&lt;/font&gt;" style="rounded=1;whiteSpace=wrap;html=1;fillColor=#51D6D5;" parent="WIyWlLk6GJQsqaUBKTNV-1" vertex="1">
          <mxGeometry x="232" y="252" width="170" height="50" as="geometry" />
        </mxCell>
        <mxCell id="2uKyOJZ1EWHe63vv_vlm-31" value="compiler-sfc" style="rounded=1;whiteSpace=wrap;html=1;fillColor=#51D6D5;" parent="WIyWlLk6GJQsqaUBKTNV-1" vertex="1">
          <mxGeometry x="232" y="340" width="170" height="50" as="geometry" />
        </mxCell>
        <mxCell id="2uKyOJZ1EWHe63vv_vlm-32" value="&lt;font style=&quot;font-size: 14px&quot;&gt;compiler-ssr&lt;/font&gt;" style="rounded=1;whiteSpace=wrap;html=1;fillColor=#51D6D5;" parent="WIyWlLk6GJQsqaUBKTNV-1" vertex="1">
          <mxGeometry x="232" y="424" width="170" height="50" as="geometry" />
        </mxCell>
        <mxCell id="2uKyOJZ1EWHe63vv_vlm-33" value="&lt;font style=&quot;font-size: 14px&quot;&gt;reactivity&lt;/font&gt;" style="rounded=1;whiteSpace=wrap;html=1;fillColor=#51D6D5;" parent="WIyWlLk6GJQsqaUBKTNV-1" vertex="1">
          <mxGeometry x="488" y="424" width="170" height="50" as="geometry" />
        </mxCell>
        <mxCell id="2uKyOJZ1EWHe63vv_vlm-34" value="&lt;font style=&quot;font-size: 14px&quot;&gt;runime-core&lt;/font&gt;" style="rounded=1;whiteSpace=wrap;html=1;fillColor=#51D6D5;" parent="WIyWlLk6GJQsqaUBKTNV-1" vertex="1">
          <mxGeometry x="488" y="170" width="170" height="50" as="geometry" />
        </mxCell>
        <mxCell id="2uKyOJZ1EWHe63vv_vlm-35" value="&lt;font style=&quot;font-size: 14px&quot;&gt;runime-dom&lt;/font&gt;" style="rounded=1;whiteSpace=wrap;html=1;fillColor=#51D6D5;" parent="WIyWlLk6GJQsqaUBKTNV-1" vertex="1">
          <mxGeometry x="490" y="250" width="170" height="50" as="geometry" />
        </mxCell>
        <mxCell id="2uKyOJZ1EWHe63vv_vlm-36" value="&lt;font style=&quot;font-size: 14px&quot;&gt;runime-test&lt;/font&gt;" style="rounded=1;whiteSpace=wrap;html=1;fillColor=#51D6D5;" parent="WIyWlLk6GJQsqaUBKTNV-1" vertex="1">
          <mxGeometry x="490" y="338" width="170" height="50" as="geometry" />
        </mxCell>
        <mxCell id="2uKyOJZ1EWHe63vv_vlm-37" value="&lt;font style=&quot;font-size: 14px&quot;&gt;server-renderer&lt;/font&gt;" style="rounded=1;whiteSpace=wrap;html=1;fillColor=#51D6D5;" parent="WIyWlLk6GJQsqaUBKTNV-1" vertex="1">
          <mxGeometry x="740" y="170" width="170" height="50" as="geometry" />
        </mxCell>
        <mxCell id="2uKyOJZ1EWHe63vv_vlm-38" value="&lt;font style=&quot;font-size: 14px&quot;&gt;shared&lt;/font&gt;" style="rounded=1;whiteSpace=wrap;html=1;fillColor=#51D6D5;" parent="WIyWlLk6GJQsqaUBKTNV-1" vertex="1">
          <mxGeometry x="740" y="250" width="170" height="50" as="geometry" />
        </mxCell>
        <mxCell id="2uKyOJZ1EWHe63vv_vlm-39" value="&lt;font style=&quot;font-size: 14px&quot;&gt;template-explorer&lt;/font&gt;" style="rounded=1;whiteSpace=wrap;html=1;fillColor=#51D6D5;" parent="WIyWlLk6GJQsqaUBKTNV-1" vertex="1">
          <mxGeometry x="740" y="424" width="170" height="50" as="geometry" />
        </mxCell>
        <mxCell id="2uKyOJZ1EWHe63vv_vlm-40" value="&lt;font style=&quot;font-size: 14px&quot;&gt;vue&lt;/font&gt;" style="rounded=1;whiteSpace=wrap;html=1;fillColor=#51D6D5;" parent="WIyWlLk6GJQsqaUBKTNV-1" vertex="1">
          <mxGeometry x="740" y="340" width="170" height="50" as="geometry" />
        </mxCell>
        <mxCell id="2uKyOJZ1EWHe63vv_vlm-41" value="&lt;font style=&quot;font-size: 26px&quot;&gt;&lt;b&gt;Vue3 Monorepo&lt;/b&gt;&lt;/font&gt;" style="text;html=1;strokeColor=none;fillColor=none;align=center;verticalAlign=middle;whiteSpace=wrap;rounded=0;" parent="WIyWlLk6GJQsqaUBKTNV-1" vertex="1">
          <mxGeometry x="446" y="80" width="264" height="20" as="geometry" />
        </mxCell>
        <mxCell id="2uKyOJZ1EWHe63vv_vlm-102" value="" style="rounded=0;whiteSpace=wrap;html=1;fillColor=#FFFFFF;" parent="WIyWlLk6GJQsqaUBKTNV-1" vertex="1">
          <mxGeometry x="140" y="720" width="1147" height="730" as="geometry" />
        </mxCell>
        <mxCell id="2uKyOJZ1EWHe63vv_vlm-150" style="edgeStyle=none;rounded=0;orthogonalLoop=1;jettySize=auto;html=1;endArrow=classic;endFill=1;entryX=0;entryY=0.5;entryDx=0;entryDy=0;" parent="WIyWlLk6GJQsqaUBKTNV-1" target="2uKyOJZ1EWHe63vv_vlm-108" edge="1">
          <mxGeometry relative="1" as="geometry">
            <mxPoint x="610" y="1065" as="targetPoint" />
            <mxPoint x="380" y="1055" as="sourcePoint" />
          </mxGeometry>
        </mxCell>
        <mxCell id="2uKyOJZ1EWHe63vv_vlm-104" value="&lt;font style=&quot;font-size: 18px&quot;&gt;template&lt;/font&gt;" style="shape=document;whiteSpace=wrap;html=1;boundedLbl=1;fillColor=#C9ED66;" parent="WIyWlLk6GJQsqaUBKTNV-1" vertex="1">
          <mxGeometry x="200" y="1015" width="180" height="100" as="geometry" />
        </mxCell>
        <mxCell id="2uKyOJZ1EWHe63vv_vlm-105" style="edgeStyle=orthogonalEdgeStyle;rounded=0;orthogonalLoop=1;jettySize=auto;html=1;exitX=0.5;exitY=0;exitDx=0;exitDy=0;entryX=0.5;entryY=1;entryDx=0;entryDy=0;" parent="WIyWlLk6GJQsqaUBKTNV-1" source="2uKyOJZ1EWHe63vv_vlm-108" target="2uKyOJZ1EWHe63vv_vlm-109" edge="1">
          <mxGeometry relative="1" as="geometry" />
        </mxCell>
        <mxCell id="2uKyOJZ1EWHe63vv_vlm-106" style="edgeStyle=orthogonalEdgeStyle;rounded=0;orthogonalLoop=1;jettySize=auto;html=1;exitX=0.5;exitY=0;exitDx=0;exitDy=0;entryX=0.5;entryY=1;entryDx=0;entryDy=0;" parent="WIyWlLk6GJQsqaUBKTNV-1" source="2uKyOJZ1EWHe63vv_vlm-108" target="2uKyOJZ1EWHe63vv_vlm-110" edge="1">
          <mxGeometry relative="1" as="geometry" />
        </mxCell>
        <mxCell id="2uKyOJZ1EWHe63vv_vlm-107" style="edgeStyle=orthogonalEdgeStyle;rounded=0;orthogonalLoop=1;jettySize=auto;html=1;exitX=1;exitY=0.5;exitDx=0;exitDy=0;" parent="WIyWlLk6GJQsqaUBKTNV-1" source="2uKyOJZ1EWHe63vv_vlm-108" edge="1">
          <mxGeometry relative="1" as="geometry">
            <mxPoint x="1015" y="1054.9999999999998" as="targetPoint" />
          </mxGeometry>
        </mxCell>
        <mxCell id="2uKyOJZ1EWHe63vv_vlm-108" value="&lt;span style=&quot;font-size: 18px&quot;&gt;parse（解析）&lt;/span&gt;" style="rounded=0;whiteSpace=wrap;html=1;fillColor=#C9ED66;" parent="WIyWlLk6GJQsqaUBKTNV-1" vertex="1">
          <mxGeometry x="630" y="1015" width="180" height="80" as="geometry" />
        </mxCell>
        <mxCell id="2uKyOJZ1EWHe63vv_vlm-109" value="&lt;font style=&quot;font-size: 16px&quot;&gt;语法分析&lt;/font&gt;" style="shape=process;whiteSpace=wrap;html=1;backgroundOutline=1;fillColor=#51D660;" parent="WIyWlLk6GJQsqaUBKTNV-1" vertex="1">
          <mxGeometry x="525" y="855" width="150" height="70" as="geometry" />
        </mxCell>
        <mxCell id="2uKyOJZ1EWHe63vv_vlm-110" value="&lt;font style=&quot;font-size: 16px&quot;&gt;词法分析&lt;/font&gt;" style="shape=process;whiteSpace=wrap;html=1;backgroundOutline=1;fillColor=#51D660;" parent="WIyWlLk6GJQsqaUBKTNV-1" vertex="1">
          <mxGeometry x="775" y="855" width="150" height="70" as="geometry" />
        </mxCell>
        <mxCell id="2uKyOJZ1EWHe63vv_vlm-111" style="edgeStyle=none;rounded=0;orthogonalLoop=1;jettySize=auto;html=1;exitX=0;exitY=1;exitDx=0;exitDy=0;endArrow=none;endFill=0;" parent="WIyWlLk6GJQsqaUBKTNV-1" source="2uKyOJZ1EWHe63vv_vlm-113" edge="1">
          <mxGeometry relative="1" as="geometry">
            <mxPoint x="1075" y="994.9999999999998" as="targetPoint" />
          </mxGeometry>
        </mxCell>
        <mxCell id="2uKyOJZ1EWHe63vv_vlm-112" style="edgeStyle=none;rounded=0;orthogonalLoop=1;jettySize=auto;html=1;exitX=1;exitY=1;exitDx=0;exitDy=0;endArrow=none;endFill=0;" parent="WIyWlLk6GJQsqaUBKTNV-1" source="2uKyOJZ1EWHe63vv_vlm-113" edge="1">
          <mxGeometry relative="1" as="geometry">
            <mxPoint x="1165" y="994.9999999999998" as="targetPoint" />
          </mxGeometry>
        </mxCell>
        <mxCell id="2uKyOJZ1EWHe63vv_vlm-113" value="" style="ellipse;whiteSpace=wrap;html=1;aspect=fixed;fillColor=#51D6A9;" parent="WIyWlLk6GJQsqaUBKTNV-1" vertex="1">
          <mxGeometry x="1098" y="915" width="40" height="40" as="geometry" />
        </mxCell>
        <mxCell id="2uKyOJZ1EWHe63vv_vlm-114" style="edgeStyle=none;rounded=0;orthogonalLoop=1;jettySize=auto;html=1;exitX=0;exitY=1;exitDx=0;exitDy=0;entryX=0.5;entryY=0;entryDx=0;entryDy=0;endArrow=none;endFill=0;" parent="WIyWlLk6GJQsqaUBKTNV-1" source="2uKyOJZ1EWHe63vv_vlm-116" target="2uKyOJZ1EWHe63vv_vlm-120" edge="1">
          <mxGeometry relative="1" as="geometry">
            <mxPoint x="1045" y="1045" as="targetPoint" />
          </mxGeometry>
        </mxCell>
        <mxCell id="2uKyOJZ1EWHe63vv_vlm-115" style="edgeStyle=none;rounded=0;orthogonalLoop=1;jettySize=auto;html=1;exitX=1;exitY=1;exitDx=0;exitDy=0;entryX=0;entryY=0;entryDx=0;entryDy=0;endArrow=none;endFill=0;" parent="WIyWlLk6GJQsqaUBKTNV-1" source="2uKyOJZ1EWHe63vv_vlm-116" target="2uKyOJZ1EWHe63vv_vlm-122" edge="1">
          <mxGeometry relative="1" as="geometry" />
        </mxCell>
        <mxCell id="2uKyOJZ1EWHe63vv_vlm-116" value="" style="ellipse;whiteSpace=wrap;html=1;aspect=fixed;fillColor=#51D6A9;" parent="WIyWlLk6GJQsqaUBKTNV-1" vertex="1">
          <mxGeometry x="1055" y="985" width="40" height="40" as="geometry" />
        </mxCell>
        <mxCell id="2uKyOJZ1EWHe63vv_vlm-117" style="edgeStyle=none;rounded=0;orthogonalLoop=1;jettySize=auto;html=1;exitX=1;exitY=1;exitDx=0;exitDy=0;entryX=0.5;entryY=0;entryDx=0;entryDy=0;endArrow=none;endFill=0;" parent="WIyWlLk6GJQsqaUBKTNV-1" source="2uKyOJZ1EWHe63vv_vlm-119" target="2uKyOJZ1EWHe63vv_vlm-123" edge="1">
          <mxGeometry relative="1" as="geometry" />
        </mxCell>
        <mxCell id="2uKyOJZ1EWHe63vv_vlm-118" style="edgeStyle=none;rounded=0;orthogonalLoop=1;jettySize=auto;html=1;exitX=0;exitY=1;exitDx=0;exitDy=0;entryX=1;entryY=0;entryDx=0;entryDy=0;endArrow=none;endFill=0;" parent="WIyWlLk6GJQsqaUBKTNV-1" source="2uKyOJZ1EWHe63vv_vlm-119" target="2uKyOJZ1EWHe63vv_vlm-122" edge="1">
          <mxGeometry relative="1" as="geometry" />
        </mxCell>
        <mxCell id="2uKyOJZ1EWHe63vv_vlm-119" value="" style="ellipse;whiteSpace=wrap;html=1;aspect=fixed;fillColor=#51D6A9;" parent="WIyWlLk6GJQsqaUBKTNV-1" vertex="1">
          <mxGeometry x="1145" y="985" width="40" height="40" as="geometry" />
        </mxCell>
        <mxCell id="2uKyOJZ1EWHe63vv_vlm-120" value="" style="ellipse;whiteSpace=wrap;html=1;aspect=fixed;fillColor=#51D6A9;" parent="WIyWlLk6GJQsqaUBKTNV-1" vertex="1">
          <mxGeometry x="1015" y="1055" width="40" height="40" as="geometry" />
        </mxCell>
        <mxCell id="2uKyOJZ1EWHe63vv_vlm-121" style="edgeStyle=orthogonalEdgeStyle;rounded=0;orthogonalLoop=1;jettySize=auto;html=1;exitX=0.5;exitY=1;exitDx=0;exitDy=0;" parent="WIyWlLk6GJQsqaUBKTNV-1" source="2uKyOJZ1EWHe63vv_vlm-122" target="2uKyOJZ1EWHe63vv_vlm-138" edge="1">
          <mxGeometry relative="1" as="geometry" />
        </mxCell>
        <mxCell id="2uKyOJZ1EWHe63vv_vlm-122" value="" style="ellipse;whiteSpace=wrap;html=1;aspect=fixed;fillColor=#51D6A9;" parent="WIyWlLk6GJQsqaUBKTNV-1" vertex="1">
          <mxGeometry x="1105" y="1055" width="40" height="40" as="geometry" />
        </mxCell>
        <mxCell id="2uKyOJZ1EWHe63vv_vlm-123" value="" style="ellipse;whiteSpace=wrap;html=1;aspect=fixed;fillColor=#51D6A9;" parent="WIyWlLk6GJQsqaUBKTNV-1" vertex="1">
          <mxGeometry x="1185" y="1055" width="40" height="40" as="geometry" />
        </mxCell>
        <mxCell id="2uKyOJZ1EWHe63vv_vlm-124" style="edgeStyle=none;rounded=0;orthogonalLoop=1;jettySize=auto;html=1;exitX=1;exitY=1;exitDx=0;exitDy=0;endArrow=none;endFill=0;" parent="WIyWlLk6GJQsqaUBKTNV-1" source="2uKyOJZ1EWHe63vv_vlm-126" edge="1">
          <mxGeometry relative="1" as="geometry">
            <mxPoint x="881.9999999999998" y="1283.0000000000002" as="targetPoint" />
          </mxGeometry>
        </mxCell>
        <mxCell id="2uKyOJZ1EWHe63vv_vlm-125" style="edgeStyle=none;rounded=0;orthogonalLoop=1;jettySize=auto;html=1;exitX=0;exitY=1;exitDx=0;exitDy=0;entryX=0.5;entryY=0;entryDx=0;entryDy=0;endArrow=none;endFill=0;" parent="WIyWlLk6GJQsqaUBKTNV-1" source="2uKyOJZ1EWHe63vv_vlm-126" target="2uKyOJZ1EWHe63vv_vlm-130" edge="1">
          <mxGeometry relative="1" as="geometry" />
        </mxCell>
        <mxCell id="2uKyOJZ1EWHe63vv_vlm-126" value="" style="ellipse;whiteSpace=wrap;html=1;aspect=fixed;fillColor=#51D6A9;" parent="WIyWlLk6GJQsqaUBKTNV-1" vertex="1">
          <mxGeometry x="823" y="1207" width="40" height="40" as="geometry" />
        </mxCell>
        <mxCell id="2uKyOJZ1EWHe63vv_vlm-128" style="edgeStyle=none;rounded=0;orthogonalLoop=1;jettySize=auto;html=1;exitX=0;exitY=1;exitDx=0;exitDy=0;entryX=0.5;entryY=0;entryDx=0;entryDy=0;endArrow=none;endFill=0;" parent="WIyWlLk6GJQsqaUBKTNV-1" source="2uKyOJZ1EWHe63vv_vlm-130" target="2uKyOJZ1EWHe63vv_vlm-134" edge="1">
          <mxGeometry relative="1" as="geometry" />
        </mxCell>
        <mxCell id="2uKyOJZ1EWHe63vv_vlm-129" style="edgeStyle=none;rounded=0;orthogonalLoop=1;jettySize=auto;html=1;exitX=1;exitY=1;exitDx=0;exitDy=0;endArrow=none;endFill=0;" parent="WIyWlLk6GJQsqaUBKTNV-1" source="2uKyOJZ1EWHe63vv_vlm-130" target="2uKyOJZ1EWHe63vv_vlm-135" edge="1">
          <mxGeometry relative="1" as="geometry" />
        </mxCell>
        <mxCell id="2uKyOJZ1EWHe63vv_vlm-147" style="edgeStyle=none;rounded=0;orthogonalLoop=1;jettySize=auto;html=1;endArrow=classic;endFill=1;" parent="WIyWlLk6GJQsqaUBKTNV-1" edge="1">
          <mxGeometry relative="1" as="geometry">
            <mxPoint x="780" y="1300" as="sourcePoint" />
            <mxPoint x="680" y="1300" as="targetPoint" />
          </mxGeometry>
        </mxCell>
        <mxCell id="2uKyOJZ1EWHe63vv_vlm-130" value="" style="ellipse;whiteSpace=wrap;html=1;aspect=fixed;fillColor=#51D6A9;" parent="WIyWlLk6GJQsqaUBKTNV-1" vertex="1">
          <mxGeometry x="780" y="1277" width="40" height="40" as="geometry" />
        </mxCell>
        <mxCell id="2uKyOJZ1EWHe63vv_vlm-131" style="edgeStyle=none;rounded=0;orthogonalLoop=1;jettySize=auto;html=1;exitX=0;exitY=1;exitDx=0;exitDy=0;endArrow=none;endFill=0;entryX=0.75;entryY=0.146;entryDx=0;entryDy=0;entryPerimeter=0;" parent="WIyWlLk6GJQsqaUBKTNV-1" source="2uKyOJZ1EWHe63vv_vlm-133" target="2uKyOJZ1EWHe63vv_vlm-135" edge="1">
          <mxGeometry relative="1" as="geometry">
            <mxPoint x="860" y="1344" as="targetPoint" />
          </mxGeometry>
        </mxCell>
        <mxCell id="2uKyOJZ1EWHe63vv_vlm-132" style="edgeStyle=none;rounded=0;orthogonalLoop=1;jettySize=auto;html=1;exitX=1;exitY=1;exitDx=0;exitDy=0;entryX=0.5;entryY=0;entryDx=0;entryDy=0;endArrow=none;endFill=0;" parent="WIyWlLk6GJQsqaUBKTNV-1" source="2uKyOJZ1EWHe63vv_vlm-133" target="2uKyOJZ1EWHe63vv_vlm-136" edge="1">
          <mxGeometry relative="1" as="geometry" />
        </mxCell>
        <mxCell id="2uKyOJZ1EWHe63vv_vlm-133" value="" style="ellipse;whiteSpace=wrap;html=1;aspect=fixed;fillColor=#51D6A9;" parent="WIyWlLk6GJQsqaUBKTNV-1" vertex="1">
          <mxGeometry x="870" y="1277" width="40" height="40" as="geometry" />
        </mxCell>
        <mxCell id="2uKyOJZ1EWHe63vv_vlm-134" value="" style="ellipse;whiteSpace=wrap;html=1;aspect=fixed;fillColor=#51D6A9;" parent="WIyWlLk6GJQsqaUBKTNV-1" vertex="1">
          <mxGeometry x="740" y="1347" width="40" height="40" as="geometry" />
        </mxCell>
        <mxCell id="2uKyOJZ1EWHe63vv_vlm-135" value="" style="ellipse;whiteSpace=wrap;html=1;aspect=fixed;fillColor=#51D6A9;" parent="WIyWlLk6GJQsqaUBKTNV-1" vertex="1">
          <mxGeometry x="830" y="1347" width="40" height="40" as="geometry" />
        </mxCell>
        <mxCell id="2uKyOJZ1EWHe63vv_vlm-136" value="" style="ellipse;whiteSpace=wrap;html=1;aspect=fixed;fillColor=#51D6A9;" parent="WIyWlLk6GJQsqaUBKTNV-1" vertex="1">
          <mxGeometry x="910" y="1347" width="40" height="40" as="geometry" />
        </mxCell>
        <mxCell id="2uKyOJZ1EWHe63vv_vlm-144" style="edgeStyle=none;rounded=0;orthogonalLoop=1;jettySize=auto;html=1;exitX=0;exitY=0.5;exitDx=0;exitDy=0;endArrow=classic;endFill=1;entryX=1;entryY=0.5;entryDx=0;entryDy=0;" parent="WIyWlLk6GJQsqaUBKTNV-1" source="2uKyOJZ1EWHe63vv_vlm-138" target="2uKyOJZ1EWHe63vv_vlm-133" edge="1">
          <mxGeometry relative="1" as="geometry">
            <mxPoint x="930" y="1297" as="targetPoint" />
          </mxGeometry>
        </mxCell>
        <mxCell id="2uKyOJZ1EWHe63vv_vlm-138" value="&lt;span style=&quot;font-size: 18px&quot;&gt;transform（转换）&lt;/span&gt;" style="rounded=0;whiteSpace=wrap;html=1;fillColor=#C9ED66;" parent="WIyWlLk6GJQsqaUBKTNV-1" vertex="1">
          <mxGeometry x="1035" y="1257" width="180" height="80" as="geometry" />
        </mxCell>
        <mxCell id="2uKyOJZ1EWHe63vv_vlm-139" value="&lt;font style=&quot;font-size: 19px&quot;&gt;&lt;b&gt;AST&lt;/b&gt;&lt;/font&gt;" style="text;html=1;strokeColor=none;fillColor=none;align=center;verticalAlign=middle;whiteSpace=wrap;rounded=0;" parent="WIyWlLk6GJQsqaUBKTNV-1" vertex="1">
          <mxGeometry x="1098" y="875" width="40" height="20" as="geometry" />
        </mxCell>
        <mxCell id="2uKyOJZ1EWHe63vv_vlm-140" value="&lt;font style=&quot;font-size: 19px&quot;&gt;&lt;b&gt;AST&lt;/b&gt;&lt;/font&gt;" style="text;html=1;strokeColor=none;fillColor=none;align=center;verticalAlign=middle;whiteSpace=wrap;rounded=0;" parent="WIyWlLk6GJQsqaUBKTNV-1" vertex="1">
          <mxGeometry x="820" y="1159" width="40" height="20" as="geometry" />
        </mxCell>
        <mxCell id="2uKyOJZ1EWHe63vv_vlm-141" value="&lt;font style=&quot;font-size: 18px&quot;&gt;render 函数&lt;/font&gt;" style="shape=document;whiteSpace=wrap;html=1;boundedLbl=1;fillColor=#C9ED66;" parent="WIyWlLk6GJQsqaUBKTNV-1" vertex="1">
          <mxGeometry x="200" y="1267" width="180" height="100" as="geometry" />
        </mxCell>
        <mxCell id="2uKyOJZ1EWHe63vv_vlm-151" style="edgeStyle=none;rounded=0;orthogonalLoop=1;jettySize=auto;html=1;exitX=0;exitY=0.5;exitDx=0;exitDy=0;entryX=1.01;entryY=0.407;entryDx=0;entryDy=0;entryPerimeter=0;endArrow=classic;endFill=1;" parent="WIyWlLk6GJQsqaUBKTNV-1" source="2uKyOJZ1EWHe63vv_vlm-145" target="2uKyOJZ1EWHe63vv_vlm-141" edge="1">
          <mxGeometry relative="1" as="geometry" />
        </mxCell>
        <mxCell id="2uKyOJZ1EWHe63vv_vlm-145" value="&lt;font style=&quot;font-size: 18px&quot;&gt;generate（生成）&lt;/font&gt;" style="rounded=0;whiteSpace=wrap;html=1;fillColor=#C9ED66;" parent="WIyWlLk6GJQsqaUBKTNV-1" vertex="1">
          <mxGeometry x="495" y="1267" width="180" height="80" as="geometry" />
        </mxCell>
        <mxCell id="2uKyOJZ1EWHe63vv_vlm-152" value="&lt;font style=&quot;font-size: 26px&quot;&gt;&lt;b&gt;Vue3 complier-core&lt;/b&gt;&lt;/font&gt;" style="text;html=1;strokeColor=none;fillColor=none;align=center;verticalAlign=middle;whiteSpace=wrap;rounded=0;" parent="WIyWlLk6GJQsqaUBKTNV-1" vertex="1">
          <mxGeometry x="588" y="770" width="264" height="20" as="geometry" />
        </mxCell>
        <mxCell id="2uKyOJZ1EWHe63vv_vlm-172" value="" style="rounded=0;whiteSpace=wrap;html=1;gradientColor=none;fillColor=#FFFFFF;" parent="WIyWlLk6GJQsqaUBKTNV-1" vertex="1">
          <mxGeometry x="165" y="1570" width="1060" height="490" as="geometry" />
        </mxCell>
        <mxCell id="2uKyOJZ1EWHe63vv_vlm-173" style="edgeStyle=orthogonalEdgeStyle;rounded=0;orthogonalLoop=1;jettySize=auto;html=1;exitX=1;exitY=0.5;exitDx=0;exitDy=0;endArrow=classic;endFill=1;entryX=0;entryY=0.617;entryDx=0;entryDy=0;entryPerimeter=0;" parent="WIyWlLk6GJQsqaUBKTNV-1" source="2uKyOJZ1EWHe63vv_vlm-174" target="2uKyOJZ1EWHe63vv_vlm-180" edge="1">
          <mxGeometry relative="1" as="geometry">
            <mxPoint x="561.9999999999998" y="1945.571428571429" as="targetPoint" />
          </mxGeometry>
        </mxCell>
        <mxCell id="2uKyOJZ1EWHe63vv_vlm-174" value="&lt;font style=&quot;font-size: 18px&quot;&gt;模版&lt;/font&gt;" style="shape=document;whiteSpace=wrap;html=1;boundedLbl=1;fillColor=#C9ED66;" parent="WIyWlLk6GJQsqaUBKTNV-1" vertex="1">
          <mxGeometry x="232" y="1890" width="180" height="110" as="geometry" />
        </mxCell>
        <mxCell id="2uKyOJZ1EWHe63vv_vlm-175" style="edgeStyle=orthogonalEdgeStyle;rounded=0;orthogonalLoop=1;jettySize=auto;html=1;exitX=0.5;exitY=0;exitDx=0;exitDy=0;entryX=0.423;entryY=0.998;entryDx=0;entryDy=0;entryPerimeter=0;endArrow=classic;endFill=1;" parent="WIyWlLk6GJQsqaUBKTNV-1" source="2uKyOJZ1EWHe63vv_vlm-180" target="2uKyOJZ1EWHe63vv_vlm-182" edge="1">
          <mxGeometry relative="1" as="geometry" />
        </mxCell>
        <mxCell id="2uKyOJZ1EWHe63vv_vlm-176" style="edgeStyle=orthogonalEdgeStyle;rounded=0;orthogonalLoop=1;jettySize=auto;html=1;exitX=0.5;exitY=0;exitDx=0;exitDy=0;entryX=0.5;entryY=1;entryDx=0;entryDy=0;endArrow=classic;endFill=1;" parent="WIyWlLk6GJQsqaUBKTNV-1" source="2uKyOJZ1EWHe63vv_vlm-180" target="2uKyOJZ1EWHe63vv_vlm-183" edge="1">
          <mxGeometry relative="1" as="geometry" />
        </mxCell>
        <mxCell id="2uKyOJZ1EWHe63vv_vlm-177" style="edgeStyle=orthogonalEdgeStyle;rounded=0;orthogonalLoop=1;jettySize=auto;html=1;exitX=0.5;exitY=0;exitDx=0;exitDy=0;entryX=0.5;entryY=1;entryDx=0;entryDy=0;endArrow=classic;endFill=1;" parent="WIyWlLk6GJQsqaUBKTNV-1" source="2uKyOJZ1EWHe63vv_vlm-180" target="2uKyOJZ1EWHe63vv_vlm-185" edge="1">
          <mxGeometry relative="1" as="geometry" />
        </mxCell>
        <mxCell id="2uKyOJZ1EWHe63vv_vlm-178" style="edgeStyle=orthogonalEdgeStyle;rounded=0;orthogonalLoop=1;jettySize=auto;html=1;exitX=0.5;exitY=0;exitDx=0;exitDy=0;endArrow=classic;endFill=1;" parent="WIyWlLk6GJQsqaUBKTNV-1" source="2uKyOJZ1EWHe63vv_vlm-180" target="2uKyOJZ1EWHe63vv_vlm-184" edge="1">
          <mxGeometry relative="1" as="geometry" />
        </mxCell>
        <mxCell id="2uKyOJZ1EWHe63vv_vlm-179" style="edgeStyle=orthogonalEdgeStyle;rounded=0;orthogonalLoop=1;jettySize=auto;html=1;exitX=1;exitY=0.75;exitDx=0;exitDy=0;endArrow=classic;endFill=1;" parent="WIyWlLk6GJQsqaUBKTNV-1" source="2uKyOJZ1EWHe63vv_vlm-180" target="2uKyOJZ1EWHe63vv_vlm-181" edge="1">
          <mxGeometry relative="1" as="geometry">
            <Array as="points">
              <mxPoint x="787" y="1945" />
            </Array>
          </mxGeometry>
        </mxCell>
        <mxCell id="2uKyOJZ1EWHe63vv_vlm-180" value="&lt;font style=&quot;font-size: 18px&quot;&gt;compiler-core&lt;/font&gt;" style="rounded=0;whiteSpace=wrap;html=1;fillColor=#C9ED66;" parent="WIyWlLk6GJQsqaUBKTNV-1" vertex="1">
          <mxGeometry x="572" y="1890" width="215" height="90" as="geometry" />
        </mxCell>
        <mxCell id="2uKyOJZ1EWHe63vv_vlm-181" value="&lt;span style=&quot;font-size: 18px&quot;&gt;render 函数&lt;/span&gt;" style="shape=document;whiteSpace=wrap;html=1;boundedLbl=1;fillColor=#C9ED66;" parent="WIyWlLk6GJQsqaUBKTNV-1" vertex="1">
          <mxGeometry x="972" y="1890" width="180" height="110" as="geometry" />
        </mxCell>
        <mxCell id="2uKyOJZ1EWHe63vv_vlm-182" value="&lt;font style=&quot;font-size: 16px&quot;&gt;baseParse&lt;/font&gt;" style="shape=process;whiteSpace=wrap;html=1;backgroundOutline=1;fillColor=#51D660;" parent="WIyWlLk6GJQsqaUBKTNV-1" vertex="1">
          <mxGeometry x="362" y="1700" width="150" height="70" as="geometry" />
        </mxCell>
        <mxCell id="2uKyOJZ1EWHe63vv_vlm-183" value="&lt;font style=&quot;font-size: 16px&quot;&gt;getBaseTra&lt;br&gt;nsformPreset&lt;/font&gt;" style="shape=process;whiteSpace=wrap;html=1;backgroundOutline=1;fillColor=#51D660;" parent="WIyWlLk6GJQsqaUBKTNV-1" vertex="1">
          <mxGeometry x="541" y="1700" width="150" height="70" as="geometry" />
        </mxCell>
        <mxCell id="2uKyOJZ1EWHe63vv_vlm-184" value="&lt;font style=&quot;font-size: 16px&quot;&gt;generate&lt;/font&gt;" style="shape=process;whiteSpace=wrap;html=1;backgroundOutline=1;fillColor=#51D660;" parent="WIyWlLk6GJQsqaUBKTNV-1" vertex="1">
          <mxGeometry x="896.5" y="1700" width="150" height="70" as="geometry" />
        </mxCell>
        <mxCell id="2uKyOJZ1EWHe63vv_vlm-185" value="&lt;span style=&quot;font-size: 16px&quot;&gt;transform&lt;/span&gt;" style="shape=process;whiteSpace=wrap;html=1;backgroundOutline=1;fillColor=#51D660;" parent="WIyWlLk6GJQsqaUBKTNV-1" vertex="1">
          <mxGeometry x="716.5" y="1700" width="150" height="70" as="geometry" />
        </mxCell>
        <mxCell id="2uKyOJZ1EWHe63vv_vlm-186" value="&lt;span style=&quot;font-size: 26px&quot;&gt;&lt;b&gt;玩转模版编译&lt;/b&gt;&lt;/span&gt;" style="text;html=1;strokeColor=none;fillColor=none;align=center;verticalAlign=middle;whiteSpace=wrap;rounded=0;" parent="WIyWlLk6GJQsqaUBKTNV-1" vertex="1">
          <mxGeometry x="572" y="1620" width="264" height="20" as="geometry" />
        </mxCell>
        <mxCell id="xIPd6fmCnX8IH_-WYWdb-0" value="" style="rounded=0;whiteSpace=wrap;html=1;fillColor=#FFFFFF;" vertex="1" parent="WIyWlLk6GJQsqaUBKTNV-1">
          <mxGeometry x="1365" y="51" width="1540" height="874" as="geometry" />
        </mxCell>
        <mxCell id="xIPd6fmCnX8IH_-WYWdb-1" style="edgeStyle=none;rounded=0;orthogonalLoop=1;jettySize=auto;html=1;endArrow=classic;endFill=1;entryX=0;entryY=0.5;entryDx=0;entryDy=0;exitX=1;exitY=0.4;exitDx=0;exitDy=0;exitPerimeter=0;" edge="1" parent="WIyWlLk6GJQsqaUBKTNV-1" target="xIPd6fmCnX8IH_-WYWdb-6" source="xIPd6fmCnX8IH_-WYWdb-2">
          <mxGeometry relative="1" as="geometry">
            <mxPoint x="1930" y="415" as="targetPoint" />
            <mxPoint x="1700" y="405" as="sourcePoint" />
          </mxGeometry>
        </mxCell>
        <mxCell id="xIPd6fmCnX8IH_-WYWdb-2" value="&lt;font style=&quot;font-size: 20px&quot;&gt;未注入 try catch 的 代码&lt;/font&gt;" style="shape=document;whiteSpace=wrap;html=1;boundedLbl=1;fillColor=#C9ED66;" vertex="1" parent="WIyWlLk6GJQsqaUBKTNV-1">
          <mxGeometry x="1510" y="365" width="180" height="100" as="geometry" />
        </mxCell>
        <mxCell id="xIPd6fmCnX8IH_-WYWdb-5" style="edgeStyle=orthogonalEdgeStyle;rounded=0;orthogonalLoop=1;jettySize=auto;html=1;exitX=1;exitY=0.5;exitDx=0;exitDy=0;" edge="1" parent="WIyWlLk6GJQsqaUBKTNV-1" source="xIPd6fmCnX8IH_-WYWdb-6">
          <mxGeometry relative="1" as="geometry">
            <mxPoint x="2480" y="405" as="targetPoint" />
          </mxGeometry>
        </mxCell>
        <mxCell id="xIPd6fmCnX8IH_-WYWdb-6" value="&lt;font style=&quot;font-size: 20px&quot;&gt;@babel/parser&lt;/font&gt;" style="rounded=0;whiteSpace=wrap;html=1;fillColor=#C9ED66;" vertex="1" parent="WIyWlLk6GJQsqaUBKTNV-1">
          <mxGeometry x="2010" y="365" width="180" height="80" as="geometry" />
        </mxCell>
        <mxCell id="xIPd6fmCnX8IH_-WYWdb-9" style="edgeStyle=none;rounded=0;orthogonalLoop=1;jettySize=auto;html=1;exitX=0;exitY=1;exitDx=0;exitDy=0;endArrow=none;endFill=0;" edge="1" parent="WIyWlLk6GJQsqaUBKTNV-1" source="xIPd6fmCnX8IH_-WYWdb-11">
          <mxGeometry relative="1" as="geometry">
            <mxPoint x="2510" y="369.9999999999998" as="targetPoint" />
          </mxGeometry>
        </mxCell>
        <mxCell id="xIPd6fmCnX8IH_-WYWdb-10" style="edgeStyle=none;rounded=0;orthogonalLoop=1;jettySize=auto;html=1;exitX=1;exitY=1;exitDx=0;exitDy=0;endArrow=none;endFill=0;" edge="1" parent="WIyWlLk6GJQsqaUBKTNV-1" source="xIPd6fmCnX8IH_-WYWdb-11">
          <mxGeometry relative="1" as="geometry">
            <mxPoint x="2600" y="369.9999999999998" as="targetPoint" />
          </mxGeometry>
        </mxCell>
        <mxCell id="xIPd6fmCnX8IH_-WYWdb-11" value="" style="ellipse;whiteSpace=wrap;html=1;aspect=fixed;fillColor=#51D6A9;" vertex="1" parent="WIyWlLk6GJQsqaUBKTNV-1">
          <mxGeometry x="2533" y="290" width="40" height="40" as="geometry" />
        </mxCell>
        <mxCell id="xIPd6fmCnX8IH_-WYWdb-12" style="edgeStyle=none;rounded=0;orthogonalLoop=1;jettySize=auto;html=1;exitX=0;exitY=1;exitDx=0;exitDy=0;entryX=0.5;entryY=0;entryDx=0;entryDy=0;endArrow=none;endFill=0;" edge="1" parent="WIyWlLk6GJQsqaUBKTNV-1" source="xIPd6fmCnX8IH_-WYWdb-14" target="xIPd6fmCnX8IH_-WYWdb-18">
          <mxGeometry relative="1" as="geometry">
            <mxPoint x="2480" y="420" as="targetPoint" />
          </mxGeometry>
        </mxCell>
        <mxCell id="xIPd6fmCnX8IH_-WYWdb-13" style="edgeStyle=none;rounded=0;orthogonalLoop=1;jettySize=auto;html=1;exitX=1;exitY=1;exitDx=0;exitDy=0;entryX=0;entryY=0;entryDx=0;entryDy=0;endArrow=none;endFill=0;" edge="1" parent="WIyWlLk6GJQsqaUBKTNV-1" source="xIPd6fmCnX8IH_-WYWdb-14" target="xIPd6fmCnX8IH_-WYWdb-20">
          <mxGeometry relative="1" as="geometry" />
        </mxCell>
        <mxCell id="xIPd6fmCnX8IH_-WYWdb-14" value="" style="ellipse;whiteSpace=wrap;html=1;aspect=fixed;fillColor=#51D6A9;" vertex="1" parent="WIyWlLk6GJQsqaUBKTNV-1">
          <mxGeometry x="2490" y="360" width="40" height="40" as="geometry" />
        </mxCell>
        <mxCell id="xIPd6fmCnX8IH_-WYWdb-15" style="edgeStyle=none;rounded=0;orthogonalLoop=1;jettySize=auto;html=1;exitX=1;exitY=1;exitDx=0;exitDy=0;entryX=0.5;entryY=0;entryDx=0;entryDy=0;endArrow=none;endFill=0;" edge="1" parent="WIyWlLk6GJQsqaUBKTNV-1" source="xIPd6fmCnX8IH_-WYWdb-17" target="xIPd6fmCnX8IH_-WYWdb-21">
          <mxGeometry relative="1" as="geometry" />
        </mxCell>
        <mxCell id="xIPd6fmCnX8IH_-WYWdb-16" style="edgeStyle=none;rounded=0;orthogonalLoop=1;jettySize=auto;html=1;exitX=0;exitY=1;exitDx=0;exitDy=0;entryX=1;entryY=0;entryDx=0;entryDy=0;endArrow=none;endFill=0;" edge="1" parent="WIyWlLk6GJQsqaUBKTNV-1" source="xIPd6fmCnX8IH_-WYWdb-17" target="xIPd6fmCnX8IH_-WYWdb-20">
          <mxGeometry relative="1" as="geometry" />
        </mxCell>
        <mxCell id="xIPd6fmCnX8IH_-WYWdb-17" value="" style="ellipse;whiteSpace=wrap;html=1;aspect=fixed;fillColor=#51D6A9;" vertex="1" parent="WIyWlLk6GJQsqaUBKTNV-1">
          <mxGeometry x="2580" y="360" width="40" height="40" as="geometry" />
        </mxCell>
        <mxCell id="xIPd6fmCnX8IH_-WYWdb-18" value="" style="ellipse;whiteSpace=wrap;html=1;aspect=fixed;fillColor=#51D6A9;" vertex="1" parent="WIyWlLk6GJQsqaUBKTNV-1">
          <mxGeometry x="2450" y="430" width="40" height="40" as="geometry" />
        </mxCell>
        <mxCell id="xIPd6fmCnX8IH_-WYWdb-19" style="edgeStyle=orthogonalEdgeStyle;rounded=0;orthogonalLoop=1;jettySize=auto;html=1;exitX=0.5;exitY=1;exitDx=0;exitDy=0;" edge="1" parent="WIyWlLk6GJQsqaUBKTNV-1" source="xIPd6fmCnX8IH_-WYWdb-20" target="xIPd6fmCnX8IH_-WYWdb-36">
          <mxGeometry relative="1" as="geometry" />
        </mxCell>
        <mxCell id="xIPd6fmCnX8IH_-WYWdb-20" value="" style="ellipse;whiteSpace=wrap;html=1;aspect=fixed;fillColor=#51D6A9;" vertex="1" parent="WIyWlLk6GJQsqaUBKTNV-1">
          <mxGeometry x="2540" y="430" width="40" height="40" as="geometry" />
        </mxCell>
        <mxCell id="xIPd6fmCnX8IH_-WYWdb-21" value="" style="ellipse;whiteSpace=wrap;html=1;aspect=fixed;fillColor=#51D6A9;" vertex="1" parent="WIyWlLk6GJQsqaUBKTNV-1">
          <mxGeometry x="2620" y="430" width="40" height="40" as="geometry" />
        </mxCell>
        <mxCell id="xIPd6fmCnX8IH_-WYWdb-22" style="edgeStyle=none;rounded=0;orthogonalLoop=1;jettySize=auto;html=1;exitX=1;exitY=1;exitDx=0;exitDy=0;endArrow=none;endFill=0;" edge="1" parent="WIyWlLk6GJQsqaUBKTNV-1" source="xIPd6fmCnX8IH_-WYWdb-24">
          <mxGeometry relative="1" as="geometry">
            <mxPoint x="2202" y="633" as="targetPoint" />
          </mxGeometry>
        </mxCell>
        <mxCell id="xIPd6fmCnX8IH_-WYWdb-23" style="edgeStyle=none;rounded=0;orthogonalLoop=1;jettySize=auto;html=1;exitX=0;exitY=1;exitDx=0;exitDy=0;entryX=0.5;entryY=0;entryDx=0;entryDy=0;endArrow=none;endFill=0;" edge="1" parent="WIyWlLk6GJQsqaUBKTNV-1" source="xIPd6fmCnX8IH_-WYWdb-24" target="xIPd6fmCnX8IH_-WYWdb-28">
          <mxGeometry relative="1" as="geometry" />
        </mxCell>
        <mxCell id="xIPd6fmCnX8IH_-WYWdb-24" value="" style="ellipse;whiteSpace=wrap;html=1;aspect=fixed;fillColor=#51D6A9;" vertex="1" parent="WIyWlLk6GJQsqaUBKTNV-1">
          <mxGeometry x="2143" y="557" width="40" height="40" as="geometry" />
        </mxCell>
        <mxCell id="xIPd6fmCnX8IH_-WYWdb-25" style="edgeStyle=none;rounded=0;orthogonalLoop=1;jettySize=auto;html=1;exitX=0;exitY=1;exitDx=0;exitDy=0;entryX=0.5;entryY=0;entryDx=0;entryDy=0;endArrow=none;endFill=0;" edge="1" parent="WIyWlLk6GJQsqaUBKTNV-1" source="xIPd6fmCnX8IH_-WYWdb-28" target="xIPd6fmCnX8IH_-WYWdb-32">
          <mxGeometry relative="1" as="geometry" />
        </mxCell>
        <mxCell id="xIPd6fmCnX8IH_-WYWdb-26" style="edgeStyle=none;rounded=0;orthogonalLoop=1;jettySize=auto;html=1;exitX=1;exitY=1;exitDx=0;exitDy=0;endArrow=none;endFill=0;" edge="1" parent="WIyWlLk6GJQsqaUBKTNV-1" source="xIPd6fmCnX8IH_-WYWdb-28" target="xIPd6fmCnX8IH_-WYWdb-33">
          <mxGeometry relative="1" as="geometry" />
        </mxCell>
        <mxCell id="xIPd6fmCnX8IH_-WYWdb-27" style="edgeStyle=none;rounded=0;orthogonalLoop=1;jettySize=auto;html=1;endArrow=classic;endFill=1;" edge="1" parent="WIyWlLk6GJQsqaUBKTNV-1">
          <mxGeometry relative="1" as="geometry">
            <mxPoint x="2100" y="650" as="sourcePoint" />
            <mxPoint x="2000" y="650" as="targetPoint" />
          </mxGeometry>
        </mxCell>
        <mxCell id="xIPd6fmCnX8IH_-WYWdb-28" value="" style="ellipse;whiteSpace=wrap;html=1;aspect=fixed;fillColor=#51D6A9;" vertex="1" parent="WIyWlLk6GJQsqaUBKTNV-1">
          <mxGeometry x="2100" y="627" width="40" height="40" as="geometry" />
        </mxCell>
        <mxCell id="xIPd6fmCnX8IH_-WYWdb-29" style="edgeStyle=none;rounded=0;orthogonalLoop=1;jettySize=auto;html=1;exitX=0;exitY=1;exitDx=0;exitDy=0;endArrow=none;endFill=0;entryX=0.75;entryY=0.146;entryDx=0;entryDy=0;entryPerimeter=0;" edge="1" parent="WIyWlLk6GJQsqaUBKTNV-1" source="xIPd6fmCnX8IH_-WYWdb-31" target="xIPd6fmCnX8IH_-WYWdb-33">
          <mxGeometry relative="1" as="geometry">
            <mxPoint x="2180" y="694" as="targetPoint" />
          </mxGeometry>
        </mxCell>
        <mxCell id="xIPd6fmCnX8IH_-WYWdb-30" style="edgeStyle=none;rounded=0;orthogonalLoop=1;jettySize=auto;html=1;exitX=1;exitY=1;exitDx=0;exitDy=0;entryX=0.5;entryY=0;entryDx=0;entryDy=0;endArrow=none;endFill=0;" edge="1" parent="WIyWlLk6GJQsqaUBKTNV-1" source="xIPd6fmCnX8IH_-WYWdb-31" target="xIPd6fmCnX8IH_-WYWdb-34">
          <mxGeometry relative="1" as="geometry" />
        </mxCell>
        <mxCell id="xIPd6fmCnX8IH_-WYWdb-31" value="" style="ellipse;whiteSpace=wrap;html=1;aspect=fixed;fillColor=#51D6A9;" vertex="1" parent="WIyWlLk6GJQsqaUBKTNV-1">
          <mxGeometry x="2190" y="627" width="40" height="40" as="geometry" />
        </mxCell>
        <mxCell id="xIPd6fmCnX8IH_-WYWdb-32" value="" style="ellipse;whiteSpace=wrap;html=1;aspect=fixed;fillColor=#51D6A9;" vertex="1" parent="WIyWlLk6GJQsqaUBKTNV-1">
          <mxGeometry x="2060" y="697" width="40" height="40" as="geometry" />
        </mxCell>
        <mxCell id="xIPd6fmCnX8IH_-WYWdb-33" value="" style="ellipse;whiteSpace=wrap;html=1;aspect=fixed;fillColor=#51D6A9;" vertex="1" parent="WIyWlLk6GJQsqaUBKTNV-1">
          <mxGeometry x="2150" y="697" width="40" height="40" as="geometry" />
        </mxCell>
        <mxCell id="xIPd6fmCnX8IH_-WYWdb-34" value="" style="ellipse;whiteSpace=wrap;html=1;aspect=fixed;fillColor=#51D6A9;" vertex="1" parent="WIyWlLk6GJQsqaUBKTNV-1">
          <mxGeometry x="2230" y="697" width="40" height="40" as="geometry" />
        </mxCell>
        <mxCell id="xIPd6fmCnX8IH_-WYWdb-35" style="edgeStyle=none;rounded=0;orthogonalLoop=1;jettySize=auto;html=1;exitX=0;exitY=0.5;exitDx=0;exitDy=0;endArrow=classic;endFill=1;entryX=1;entryY=0.5;entryDx=0;entryDy=0;" edge="1" parent="WIyWlLk6GJQsqaUBKTNV-1" source="xIPd6fmCnX8IH_-WYWdb-36" target="xIPd6fmCnX8IH_-WYWdb-31">
          <mxGeometry relative="1" as="geometry">
            <mxPoint x="2250" y="647" as="targetPoint" />
          </mxGeometry>
        </mxCell>
        <mxCell id="xIPd6fmCnX8IH_-WYWdb-46" style="edgeStyle=orthogonalEdgeStyle;rounded=0;orthogonalLoop=1;jettySize=auto;html=1;exitX=0.5;exitY=1;exitDx=0;exitDy=0;entryX=0.5;entryY=0;entryDx=0;entryDy=0;" edge="1" parent="WIyWlLk6GJQsqaUBKTNV-1" source="xIPd6fmCnX8IH_-WYWdb-36" target="xIPd6fmCnX8IH_-WYWdb-44">
          <mxGeometry relative="1" as="geometry" />
        </mxCell>
        <mxCell id="xIPd6fmCnX8IH_-WYWdb-47" style="edgeStyle=orthogonalEdgeStyle;rounded=0;orthogonalLoop=1;jettySize=auto;html=1;exitX=0.5;exitY=1;exitDx=0;exitDy=0;" edge="1" parent="WIyWlLk6GJQsqaUBKTNV-1" source="xIPd6fmCnX8IH_-WYWdb-36" target="xIPd6fmCnX8IH_-WYWdb-45">
          <mxGeometry relative="1" as="geometry" />
        </mxCell>
        <mxCell id="xIPd6fmCnX8IH_-WYWdb-36" value="&lt;font style=&quot;font-size: 20px&quot;&gt;@babel/traverse&lt;/font&gt;" style="rounded=0;whiteSpace=wrap;html=1;fillColor=#C9ED66;" vertex="1" parent="WIyWlLk6GJQsqaUBKTNV-1">
          <mxGeometry x="2470" y="607" width="180" height="80" as="geometry" />
        </mxCell>
        <mxCell id="xIPd6fmCnX8IH_-WYWdb-37" value="&lt;font style=&quot;font-size: 19px&quot;&gt;&lt;b&gt;AST&lt;/b&gt;&lt;/font&gt;" style="text;html=1;strokeColor=none;fillColor=none;align=center;verticalAlign=middle;whiteSpace=wrap;rounded=0;" vertex="1" parent="WIyWlLk6GJQsqaUBKTNV-1">
          <mxGeometry x="2533" y="250" width="40" height="20" as="geometry" />
        </mxCell>
        <mxCell id="xIPd6fmCnX8IH_-WYWdb-38" value="&lt;font style=&quot;font-size: 19px&quot;&gt;&lt;b&gt;AST&lt;/b&gt;&lt;/font&gt;" style="text;html=1;strokeColor=none;fillColor=none;align=center;verticalAlign=middle;whiteSpace=wrap;rounded=0;" vertex="1" parent="WIyWlLk6GJQsqaUBKTNV-1">
          <mxGeometry x="2140" y="509" width="40" height="20" as="geometry" />
        </mxCell>
        <mxCell id="xIPd6fmCnX8IH_-WYWdb-39" value="&lt;font style=&quot;font-size: 20px&quot;&gt;注入 try catch 的代码&lt;/font&gt;" style="shape=document;whiteSpace=wrap;html=1;boundedLbl=1;fillColor=#C9ED66;" vertex="1" parent="WIyWlLk6GJQsqaUBKTNV-1">
          <mxGeometry x="1500" y="617" width="180" height="100" as="geometry" />
        </mxCell>
        <mxCell id="xIPd6fmCnX8IH_-WYWdb-40" style="edgeStyle=none;rounded=0;orthogonalLoop=1;jettySize=auto;html=1;exitX=0;exitY=0.5;exitDx=0;exitDy=0;entryX=1.01;entryY=0.407;entryDx=0;entryDy=0;entryPerimeter=0;endArrow=classic;endFill=1;" edge="1" parent="WIyWlLk6GJQsqaUBKTNV-1" source="xIPd6fmCnX8IH_-WYWdb-41" target="xIPd6fmCnX8IH_-WYWdb-39">
          <mxGeometry relative="1" as="geometry" />
        </mxCell>
        <mxCell id="xIPd6fmCnX8IH_-WYWdb-41" value="&lt;font style=&quot;font-size: 19px&quot;&gt;@babel/core&lt;/font&gt;" style="rounded=0;whiteSpace=wrap;html=1;fillColor=#C9ED66;" vertex="1" parent="WIyWlLk6GJQsqaUBKTNV-1">
          <mxGeometry x="1815" y="617" width="180" height="80" as="geometry" />
        </mxCell>
        <mxCell id="xIPd6fmCnX8IH_-WYWdb-42" value="&lt;font size=&quot;1&quot;&gt;&lt;b style=&quot;font-size: 32px&quot;&gt;auto-inject-async-catch-loader 工作机制&amp;nbsp;&lt;/b&gt;&lt;/font&gt;" style="text;html=1;strokeColor=none;fillColor=none;align=center;verticalAlign=middle;whiteSpace=wrap;rounded=0;" vertex="1" parent="WIyWlLk6GJQsqaUBKTNV-1">
          <mxGeometry x="1800" y="130" width="670" height="20" as="geometry" />
        </mxCell>
        <mxCell id="xIPd6fmCnX8IH_-WYWdb-44" value="&lt;font style=&quot;font-size: 17px&quot;&gt;查找&amp;nbsp;AwaitExpression 节点&lt;/font&gt;" style="shape=process;whiteSpace=wrap;html=1;backgroundOutline=1;fillColor=#51D660;" vertex="1" parent="WIyWlLk6GJQsqaUBKTNV-1">
          <mxGeometry x="2310" y="790" width="210" height="80" as="geometry" />
        </mxCell>
        <mxCell id="xIPd6fmCnX8IH_-WYWdb-45" value="&lt;font style=&quot;font-size: 17px&quot;&gt;插入 TryStatement 节点&lt;/font&gt;" style="shape=process;whiteSpace=wrap;html=1;backgroundOutline=1;fillColor=#51D660;" vertex="1" parent="WIyWlLk6GJQsqaUBKTNV-1">
          <mxGeometry x="2590" y="790" width="210" height="80" as="geometry" />
        </mxCell>
      </root>
    </mxGraphModel>
  </diagram>
</mxfile>
